<svg height="512" viewBox="0 0 512 512" width="512" xmlns="http://www.w3.org/2000/svg"><g><g><path d="m456 488h-416a24 24 0 0 1 -24-24v-24h464v24a24 24 0 0 1 -24 24z" fill="#e0e0e2"/><path d="m448 336v104h-400v-240a40 40 0 0 1 40-40h56" fill="#57565c"/><path d="m416 336v80h-336v-224h64" fill="#3d9ae2"/><path d="m272 464h-48l-8-24h64z" fill="#57565c"/><path d="m496 40v24h-352v-24a24.006 24.006 0 0 1 24-24h304a24.006 24.006 0 0 1 24 24z" fill="#57565c"/><path d="m496 64v240a24.006 24.006 0 0 1 -24 24h-304a24.006 24.006 0 0 1 -24-24v-240z" fill="#83d8f4"/><g fill="#e0e0e2"><circle cx="168" cy="40" r="8"/><circle cx="192" cy="40" r="8"/><circle cx="216" cy="40" r="8"/></g><path d="m176 96h160v72h-160z" fill="#cca400"/><path d="m360 96h104v200h-104z" fill="#91cc04"/></g><g><path d="m96 456h-56a8 8 0 0 0 0 16h56a8 8 0 0 0 0-16z"/><path d="m128 456h-8a8 8 0 0 0 0 16h8a8 8 0 0 0 0-16z"/><path d="m472 8h-304a32.036 32.036 0 0 0 -32 32v112h-48a48.051 48.051 0 0 0 -48 48v232h-24a8 8 0 0 0 -8 8v24a32.036 32.036 0 0 0 32 32h416a32.036 32.036 0 0 0 32-32v-24a8 8 0 0 0 -8-8h-24v-96h16a32.036 32.036 0 0 0 32-32v-264a32.036 32.036 0 0 0 -32-32zm-304 328h240v72h-320v-208h48v104a32.036 32.036 0 0 0 32 32zm-112-136a32.036 32.036 0 0 1 32-32h48v16h-56a8 8 0 0 0 -8 8v224a8 8 0 0 0 8 8h336a8 8 0 0 0 8-8v-80h16v96h-384zm212.9 248-2.67 8h-36.46l-2.67-8zm203.1 0v16a16.021 16.021 0 0 1 -16 16h-416a16.021 16.021 0 0 1 -16-16v-16h186.23l6.18 18.53a8 8 0 0 0 7.59 5.47h48a8 8 0 0 0 7.59-5.47l6.18-18.53zm16-144a16.021 16.021 0 0 1 -16 16h-304a16.021 16.021 0 0 1 -16-16v-232h336zm0-248h-336v-16a16.021 16.021 0 0 1 16-16h304a16.021 16.021 0 0 1 16 16z"/><circle cx="168" cy="40" r="8"/><circle cx="192" cy="40" r="8"/><circle cx="216" cy="40" r="8"/><path d="m336 88h-160a8 8 0 0 0 -8 8v72a8 8 0 0 0 8 8h160a8 8 0 0 0 8-8v-72a8 8 0 0 0 -8-8zm-8 72h-144v-56h144z"/><path d="m336 184h-160a8 8 0 0 0 0 16h160a8 8 0 0 0 0-16z"/><path d="m336 208h-160a8 8 0 0 0 0 16h160a8 8 0 0 0 0-16z"/><path d="m336 264h-160a8 8 0 0 0 0 16h160a8 8 0 0 0 0-16z"/><path d="m256 288h-80a8 8 0 0 0 0 16h80a8 8 0 0 0 0-16z"/><path d="m176 248h96a8 8 0 0 0 0-16h-96a8 8 0 0 0 0 16z"/><path d="m304 248a8 8 0 0 0 0-16h-8a8 8 0 0 0 0 16z"/><path d="m464 88h-104a8 8 0 0 0 -8 8v200a8 8 0 0 0 8 8h104a8 8 0 0 0 8-8v-200a8 8 0 0 0 -8-8zm-8 200h-88v-184h88z"/><path d="m288 288h-8a8 8 0 0 0 0 16h8a8 8 0 0 0 0-16z"/></g></g></svg>